<?xml version="1.0" encoding="UTF-8" standalone="no"?>
<!DOCTYPE svg PUBLIC "-//W3C//DTD SVG 1.1//EN" "http://www.w3.org/Graphics/SVG/1.1/DTD/svg11.dtd">
<svg width="100%" height="100%" viewBox="0 0 1320 1320" version="1.1" xmlns="http://www.w3.org/2000/svg" xmlns:xlink="http://www.w3.org/1999/xlink" xml:space="preserve" xmlns:serif="http://www.serif.com/" style="fill-rule:evenodd;clip-rule:evenodd;stroke-linejoin:round;stroke-miterlimit:2;">
    <g id="personfill" transform="matrix(1.29329,0,0,1.30694,-193.574,-210.623)">
        <g id="buttonpanel">
            <g id="personfill1" serif:id="personfill">
                <g transform="matrix(1,0,0,1.09848,0,-104.024)">
                    <rect x="219.265" y="1056.32" width="881.471" height="41.848" style="fill:white;"/>
                </g>
                <g transform="matrix(1.88866,0,0,1.96284,-247.699,-891.923)">
                    <path d="M275.06,992.561C294.373,901.629 379.606,833.034 481.698,833.034C583.79,833.034 669.024,901.629 688.336,992.561L275.06,992.561Z" style="fill:rgb(0,162,255);"/>
                </g>
                <g transform="matrix(1.23524,0,0,1.12366,-171.526,-44.0921)">
                    <path d="M316.369,979.309C350.538,797.138 497.401,660 673.171,660C848.941,660 995.804,797.138 1029.97,979.309L992.681,979.309C959.153,819.415 828.742,700.048 673.171,700.048C517.599,700.048 387.189,819.415 353.661,979.309L316.369,979.309Z" style="fill:white;"/>
                </g>
                <g transform="matrix(1.04921,0,0,1.13663,-38.6722,72.5301)">
                    <ellipse cx="665.906" cy="319.054" rx="171.343" ry="156.512" style="fill:rgb(0,162,255);"/>
                </g>
                <g transform="matrix(1.26686,0,0,1.28587,-173.248,-208.687)">
                    <path d="M658.964,341.176C749.208,341.176 822.475,412.606 822.475,500.588C822.475,588.57 749.208,660 658.964,660C568.72,660 495.453,588.57 495.453,500.588C495.453,412.606 568.72,341.176 658.964,341.176ZM658.964,373.058C586.769,373.058 528.156,430.202 528.156,500.588C528.156,570.973 586.769,628.118 658.964,628.118C731.16,628.118 789.773,570.973 789.773,500.588C789.773,430.202 731.16,373.058 658.964,373.058Z" style="fill:white;"/>
                </g>
            </g>
        </g>
    </g>
</svg>
