<?xml version="1.0" encoding="UTF-8" standalone="no"?>
<!DOCTYPE svg PUBLIC "-//W3C//DTD SVG 1.1//EN" "http://www.w3.org/Graphics/SVG/1.1/DTD/svg11.dtd">
<svg width="100%" height="100%" viewBox="0 0 1320 1320" version="1.1" xmlns="http://www.w3.org/2000/svg" xmlns:xlink="http://www.w3.org/1999/xlink" xml:space="preserve" xmlns:serif="http://www.serif.com/" style="fill-rule:evenodd;clip-rule:evenodd;">
    <g transform="matrix(3.77409e-16,-6.16356,6.16356,3.77409e-16,430.756,1122.26)">
        <path d="M125.167,2.205L1,2.205L1,69.672C1,70.701 1.835,71.536 2.863,71.536L125.167,71.536L125.167,2.205Z" style="fill:rgb(245,244,240);fill-rule:nonzero;"/>
    </g>
    <g transform="matrix(3.77409e-16,-6.16356,6.16356,3.77409e-16,430.756,1122.26)">
        <path d="M120.508,25.545C120.508,23.127 118.546,21.164 116.128,21.164L18.435,21.164C16.018,21.164 14.055,23.127 14.055,25.545L14.055,72.126C14.055,72.333 14.223,72.5 14.429,72.5L120.002,72.5C120.281,72.5 120.508,72.273 120.508,71.994L120.508,25.545Z" style="fill:rgb(56,58,59);fill-rule:nonzero;"/>
    </g>
    <g transform="matrix(3.77409e-16,-6.16356,6.16356,3.77409e-16,430.756,1122.26)">
        <path d="M57.212,18.438C57.35,18.438 57.481,18.423 57.603,18.399C57.718,18.375 57.822,18.331 57.91,18.273C57.998,18.219 58.07,18.146 58.119,18.059C58.169,17.972 58.196,17.865 58.196,17.744C58.196,17.612 58.169,17.506 58.119,17.423C58.064,17.341 57.993,17.273 57.905,17.224C57.811,17.175 57.713,17.142 57.597,17.122C57.481,17.103 57.361,17.093 57.234,17.093L56.047,17.093L56.047,18.438L57.212,18.438ZM56.047,18.719L56.047,20.307L55.673,20.307L55.673,16.811L57.223,16.811C57.658,16.811 57.993,16.884 58.224,17.025C58.455,17.171 58.57,17.404 58.57,17.729C58.57,17.947 58.521,18.122 58.422,18.253C58.317,18.384 58.152,18.491 57.927,18.583C58.042,18.617 58.136,18.671 58.202,18.738C58.268,18.807 58.317,18.884 58.35,18.972C58.383,19.059 58.405,19.151 58.416,19.248C58.422,19.346 58.427,19.438 58.432,19.53C58.438,19.661 58.444,19.773 58.455,19.86C58.46,19.948 58.471,20.02 58.487,20.074C58.499,20.127 58.515,20.171 58.532,20.2C58.548,20.234 58.57,20.258 58.597,20.273L58.597,20.307L58.185,20.307C58.147,20.249 58.119,20.166 58.103,20.064C58.086,19.962 58.07,19.85 58.064,19.739C58.053,19.627 58.042,19.516 58.042,19.409C58.037,19.302 58.026,19.215 58.009,19.147C57.987,19.054 57.954,18.977 57.905,18.918C57.85,18.865 57.795,18.821 57.724,18.792C57.652,18.763 57.575,18.744 57.493,18.734C57.405,18.724 57.317,18.719 57.223,18.719L56.047,18.719Z" style="fill:rgb(67,62,62);fill-rule:nonzero;"/>
    </g>
    <g transform="matrix(3.77409e-16,-6.16356,6.16356,3.77409e-16,430.756,1122.26)">
        <path d="M59.499,19.263C59.515,19.418 59.554,19.549 59.62,19.656C59.68,19.768 59.763,19.855 59.867,19.923C59.966,19.991 60.082,20.04 60.214,20.069C60.346,20.103 60.488,20.117 60.637,20.117C60.813,20.117 60.967,20.098 61.093,20.059C61.219,20.02 61.324,19.967 61.406,19.899C61.489,19.836 61.549,19.758 61.588,19.671C61.626,19.583 61.643,19.491 61.643,19.394C61.643,19.258 61.61,19.147 61.538,19.064C61.467,18.981 61.379,18.909 61.269,18.855C61.154,18.802 61.027,18.763 60.884,18.729C60.736,18.695 60.587,18.666 60.439,18.632C60.285,18.603 60.137,18.569 59.993,18.525C59.845,18.481 59.719,18.428 59.609,18.355C59.493,18.282 59.406,18.19 59.334,18.078C59.263,17.967 59.23,17.826 59.23,17.656C59.23,17.535 59.257,17.418 59.318,17.307C59.373,17.195 59.455,17.093 59.57,17.006C59.68,16.918 59.818,16.85 59.988,16.797C60.158,16.743 60.351,16.719 60.571,16.719C60.796,16.719 60.989,16.748 61.159,16.802C61.324,16.855 61.461,16.933 61.571,17.025C61.681,17.122 61.764,17.234 61.819,17.36C61.874,17.486 61.901,17.622 61.901,17.763L61.544,17.763C61.544,17.632 61.516,17.515 61.467,17.418C61.412,17.321 61.34,17.243 61.247,17.18C61.154,17.117 61.049,17.074 60.934,17.044C60.818,17.015 60.697,17.001 60.571,17.001C60.378,17.001 60.219,17.025 60.093,17.069C59.961,17.117 59.856,17.18 59.779,17.253C59.702,17.326 59.647,17.409 59.62,17.501C59.592,17.593 59.587,17.68 59.603,17.773C59.625,17.884 59.675,17.977 59.757,18.045C59.84,18.112 59.939,18.171 60.054,18.209C60.17,18.253 60.301,18.292 60.444,18.316C60.582,18.346 60.725,18.375 60.873,18.404C61.022,18.438 61.164,18.472 61.302,18.515C61.439,18.559 61.56,18.613 61.664,18.685C61.769,18.758 61.857,18.846 61.923,18.957C61.984,19.069 62.017,19.209 62.017,19.38C62.017,19.705 61.89,19.952 61.637,20.132C61.384,20.312 61.027,20.399 60.571,20.399C60.367,20.399 60.175,20.375 59.999,20.331C59.823,20.283 59.669,20.209 59.543,20.113C59.417,20.02 59.318,19.899 59.246,19.758C59.175,19.622 59.136,19.452 59.136,19.263L59.499,19.263Z" style="fill:rgb(67,62,62);fill-rule:nonzero;"/>
    </g>
    <g transform="matrix(3.77409e-16,-6.16356,6.16356,3.77409e-16,430.756,1122.26)">
        <path d="M40.731,18.552L41.525,18.552C41.682,18.552 41.807,18.574 41.904,18.617C42,18.658 42.08,18.719 42.143,18.798C42.205,18.878 42.251,18.97 42.278,19.076C42.307,19.182 42.321,19.293 42.321,19.411C42.321,19.595 42.3,19.737 42.258,19.841C42.215,19.942 42.157,20.027 42.082,20.097C42.007,20.164 41.928,20.21 41.843,20.232C41.725,20.263 41.619,20.28 41.525,20.28L40.731,20.28L40.731,18.552ZM41.264,18.943L41.264,19.887L41.397,19.887C41.508,19.887 41.587,19.875 41.633,19.851C41.682,19.827 41.718,19.783 41.744,19.72C41.771,19.66 41.785,19.559 41.785,19.421C41.785,19.238 41.754,19.112 41.696,19.045C41.636,18.977 41.537,18.943 41.399,18.943L41.264,18.943Z" style="fill:rgb(67,62,62);fill-rule:nonzero;"/>
    </g>
    <g transform="matrix(3.77409e-16,-6.16356,6.16356,3.77409e-16,430.756,1122.26)">
        <path d="M42.586,18.552L43.066,18.552L43.066,18.878L42.586,18.878L42.586,18.552ZM42.586,19.028L43.066,19.028L43.066,20.28L42.586,20.28L42.586,19.028Z" style="fill:rgb(67,62,62);fill-rule:nonzero;"/>
    </g>
    <g transform="matrix(3.77409e-16,-6.16356,6.16356,3.77409e-16,430.756,1122.26)">
        <path d="M43.81,19.433L43.351,19.385C43.368,19.305 43.395,19.242 43.426,19.197C43.46,19.151 43.506,19.11 43.569,19.076C43.612,19.052 43.672,19.035 43.75,19.02C43.827,19.006 43.909,19.001 43.998,19.001C44.143,19.001 44.259,19.008 44.346,19.025C44.433,19.04 44.505,19.073 44.563,19.124C44.604,19.16 44.635,19.211 44.659,19.276C44.684,19.341 44.696,19.402 44.696,19.462L44.696,20.015C44.696,20.073 44.698,20.119 44.708,20.152C44.715,20.186 44.729,20.23 44.756,20.28L44.305,20.28C44.288,20.249 44.276,20.222 44.271,20.205C44.264,20.189 44.259,20.162 44.254,20.128C44.191,20.189 44.129,20.23 44.066,20.256C43.981,20.292 43.882,20.309 43.771,20.309C43.622,20.309 43.508,20.273 43.431,20.205C43.353,20.135 43.315,20.051 43.315,19.95C43.315,19.853 43.342,19.776 43.397,19.716C43.453,19.653 43.556,19.607 43.706,19.578C43.887,19.542 44.003,19.517 44.056,19.501C44.109,19.486 44.167,19.469 44.227,19.445C44.227,19.385 44.215,19.344 44.189,19.322C44.164,19.298 44.124,19.286 44.061,19.286C43.984,19.286 43.923,19.298 43.885,19.325C43.853,19.344 43.829,19.38 43.81,19.433ZM44.227,19.687C44.16,19.711 44.092,19.73 44.02,19.749C43.923,19.776 43.861,19.8 43.834,19.827C43.807,19.851 43.795,19.88 43.795,19.913C43.795,19.952 43.807,19.983 43.834,20.005C43.861,20.029 43.899,20.041 43.95,20.041C44.003,20.041 44.054,20.029 44.1,20.003C44.145,19.979 44.179,19.945 44.198,19.909C44.218,19.87 44.227,19.822 44.227,19.764L44.227,19.687Z" style="fill:rgb(67,62,62);fill-rule:nonzero;"/>
    </g>
    <g transform="matrix(3.77409e-16,-6.16356,6.16356,3.77409e-16,430.756,1122.26)">
        <path d="M45.009,18.552L45.494,18.552L45.494,19.151C45.542,19.1 45.595,19.064 45.656,19.037C45.719,19.013 45.783,19.001 45.859,19.001C46.011,19.001 46.136,19.054 46.237,19.165C46.336,19.274 46.387,19.43 46.387,19.636C46.387,19.773 46.363,19.894 46.32,19.998C46.274,20.102 46.211,20.179 46.129,20.232C46.049,20.283 45.96,20.309 45.861,20.309C45.776,20.309 45.699,20.29 45.629,20.254C45.579,20.227 45.521,20.174 45.458,20.094L45.458,20.28L45.009,20.28L45.009,18.552ZM45.489,19.65C45.489,19.759 45.511,19.836 45.55,19.884C45.591,19.933 45.641,19.957 45.704,19.957C45.762,19.957 45.81,19.933 45.849,19.887C45.888,19.839 45.907,19.759 45.907,19.645C45.907,19.547 45.888,19.474 45.849,19.428C45.813,19.382 45.767,19.358 45.711,19.358C45.646,19.358 45.593,19.382 45.552,19.43C45.511,19.479 45.489,19.554 45.489,19.65Z" style="fill:rgb(67,62,62);fill-rule:nonzero;"/>
    </g>
    <g transform="matrix(3.77409e-16,-6.16356,6.16356,3.77409e-16,430.756,1122.26)">
        <path d="M48.007,19.773L47.044,19.773C47.053,19.851 47.075,19.909 47.106,19.945C47.152,20 47.213,20.027 47.288,20.027C47.336,20.027 47.379,20.015 47.423,19.991C47.449,19.976 47.476,19.95 47.507,19.913L47.98,19.957C47.908,20.082 47.819,20.172 47.717,20.227C47.616,20.28 47.469,20.309 47.278,20.309C47.111,20.309 46.981,20.285 46.887,20.239C46.79,20.191 46.713,20.119 46.65,20.015C46.588,19.913 46.556,19.795 46.556,19.658C46.556,19.462 46.619,19.303 46.744,19.182C46.87,19.061 47.044,19.001 47.263,19.001C47.442,19.001 47.584,19.028 47.688,19.081C47.792,19.136 47.872,19.213 47.925,19.317C47.98,19.421 48.007,19.554 48.007,19.72L48.007,19.773ZM47.519,19.544C47.51,19.45 47.483,19.385 47.444,19.344C47.403,19.305 47.35,19.283 47.283,19.283C47.208,19.283 47.148,19.315 47.102,19.375C47.073,19.414 47.053,19.469 47.046,19.544L47.519,19.544Z" style="fill:rgb(67,62,62);fill-rule:nonzero;"/>
    </g>
    <g transform="matrix(3.77409e-16,-6.16356,6.16356,3.77409e-16,430.756,1122.26)">
        <path d="M49.16,19.79L49.617,19.843C49.59,19.938 49.549,20.02 49.491,20.09C49.436,20.16 49.361,20.212 49.271,20.251C49.182,20.29 49.071,20.309 48.933,20.309C48.801,20.309 48.69,20.297 48.6,20.273C48.511,20.249 48.436,20.208 48.374,20.152C48.308,20.097 48.26,20.032 48.224,19.957C48.188,19.882 48.168,19.783 48.168,19.66C48.168,19.532 48.19,19.423 48.234,19.339C48.267,19.276 48.311,19.218 48.366,19.17C48.422,19.119 48.48,19.083 48.538,19.059C48.632,19.02 48.752,19.001 48.897,19.001C49.102,19.001 49.259,19.037 49.365,19.11C49.472,19.182 49.549,19.291 49.59,19.43L49.139,19.491C49.127,19.438 49.1,19.397 49.061,19.37C49.025,19.344 48.975,19.329 48.912,19.329C48.832,19.329 48.769,19.358 48.719,19.414C48.67,19.472 48.646,19.559 48.646,19.674C48.646,19.776 48.67,19.856 48.719,19.909C48.767,19.962 48.83,19.988 48.905,19.988C48.967,19.988 49.02,19.971 49.064,19.94C49.107,19.909 49.139,19.858 49.16,19.79Z" style="fill:rgb(67,62,62);fill-rule:nonzero;"/>
    </g>
    <g transform="matrix(3.77409e-16,-6.16356,6.16356,3.77409e-16,430.756,1122.26)">
        <path d="M50.273,19.433L49.815,19.385C49.831,19.305 49.858,19.242 49.889,19.197C49.923,19.151 49.969,19.11 50.032,19.076C50.075,19.052 50.136,19.035 50.213,19.02C50.29,19.006 50.372,19.001 50.461,19.001C50.606,19.001 50.722,19.008 50.809,19.025C50.896,19.04 50.968,19.073 51.026,19.124C51.067,19.16 51.099,19.211 51.123,19.276C51.147,19.341 51.159,19.402 51.159,19.462L51.159,20.015C51.159,20.073 51.161,20.119 51.171,20.152C51.178,20.186 51.193,20.23 51.219,20.28L50.768,20.28C50.751,20.249 50.739,20.222 50.734,20.205C50.727,20.189 50.722,20.162 50.717,20.128C50.655,20.189 50.592,20.23 50.529,20.256C50.445,20.292 50.346,20.309 50.234,20.309C50.085,20.309 49.971,20.273 49.894,20.205C49.817,20.135 49.778,20.051 49.778,19.95C49.778,19.853 49.805,19.776 49.86,19.716C49.916,19.653 50.02,19.607 50.169,19.578C50.35,19.542 50.466,19.517 50.519,19.501C50.572,19.486 50.63,19.469 50.691,19.445C50.691,19.385 50.679,19.344 50.652,19.322C50.628,19.298 50.587,19.286 50.524,19.286C50.447,19.286 50.387,19.298 50.348,19.325C50.317,19.344 50.292,19.38 50.273,19.433ZM50.691,19.687C50.623,19.711 50.556,19.73 50.483,19.749C50.387,19.776 50.324,19.8 50.297,19.827C50.271,19.851 50.259,19.88 50.259,19.913C50.259,19.952 50.271,19.983 50.297,20.005C50.324,20.029 50.362,20.041 50.413,20.041C50.466,20.041 50.517,20.029 50.563,20.003C50.609,19.979 50.642,19.945 50.661,19.909C50.681,19.87 50.691,19.822 50.691,19.764L50.691,19.687Z" style="fill:rgb(67,62,62);fill-rule:nonzero;"/>
    </g>
    <g transform="matrix(3.77409e-16,-6.16356,6.16356,3.77409e-16,430.756,1122.26)">
        <path d="M51.451,19.028L51.9,19.028L51.9,19.233C51.943,19.146 51.987,19.083 52.033,19.049C52.081,19.018 52.136,19.001 52.204,19.001C52.274,19.001 52.351,19.023 52.436,19.066L52.288,19.409C52.23,19.385 52.187,19.373 52.153,19.373C52.09,19.373 52.042,19.399 52.006,19.45C51.958,19.525 51.934,19.66 51.934,19.86L51.934,20.28L51.451,20.28L51.451,19.028Z" style="fill:rgb(67,62,62);fill-rule:nonzero;"/>
    </g>
    <g transform="matrix(3.77409e-16,-6.16356,6.16356,3.77409e-16,430.756,1122.26)">
        <path d="M53.947,19.773L52.983,19.773C52.993,19.851 53.015,19.909 53.046,19.945C53.092,20 53.152,20.027 53.227,20.027C53.276,20.027 53.319,20.015 53.362,19.991C53.389,19.976 53.416,19.95 53.447,19.913L53.92,19.957C53.847,20.082 53.758,20.172 53.657,20.227C53.556,20.28 53.408,20.309 53.218,20.309C53.051,20.309 52.92,20.285 52.827,20.239C52.73,20.191 52.653,20.119 52.59,20.015C52.527,19.913 52.496,19.795 52.496,19.658C52.496,19.462 52.559,19.303 52.684,19.182C52.81,19.061 52.983,19.001 53.203,19.001C53.382,19.001 53.524,19.028 53.628,19.081C53.731,19.136 53.811,19.213 53.864,19.317C53.92,19.421 53.947,19.554 53.947,19.72L53.947,19.773ZM53.459,19.544C53.449,19.45 53.423,19.385 53.384,19.344C53.343,19.305 53.29,19.283 53.222,19.283C53.148,19.283 53.087,19.315 53.041,19.375C53.012,19.414 52.993,19.469 52.986,19.544L53.459,19.544Z" style="fill:rgb(67,62,62);fill-rule:nonzero;"/>
    </g>
    <g transform="matrix(3.77409e-16,-6.16356,6.16356,3.77409e-16,430.756,1122.26)">
        <path d="M22.193,17.088L24.228,17.088C24.581,17.088 24.911,17.13 25.196,17.21C25.48,17.294 25.725,17.407 25.925,17.552C26.125,17.697 26.278,17.866 26.386,18.058C26.493,18.251 26.547,18.457 26.547,18.677C26.547,18.907 26.493,19.118 26.378,19.315C26.27,19.512 26.109,19.68 25.902,19.821C25.702,19.966 25.456,20.078 25.173,20.158C24.888,20.238 24.574,20.28 24.228,20.28L22.193,20.28L22.193,17.088ZM23.076,19.816L24.013,19.816C24.251,19.816 24.474,19.793 24.673,19.741C24.881,19.694 25.049,19.619 25.196,19.526C25.341,19.427 25.456,19.31 25.541,19.169C25.626,19.029 25.664,18.865 25.664,18.682C25.664,18.485 25.626,18.316 25.541,18.171C25.456,18.03 25.341,17.908 25.196,17.819C25.049,17.726 24.873,17.655 24.673,17.608C24.466,17.566 24.251,17.543 24.013,17.543L23.076,17.543L23.076,19.816Z" style="fill:rgb(67,62,62);fill-rule:nonzero;"/>
    </g>
    <g transform="matrix(3.77409e-16,-6.16356,6.16356,3.77409e-16,430.756,1122.26)">
        <path d="M30.802,20.219C30.725,20.247 30.664,20.266 30.61,20.28C30.557,20.294 30.503,20.308 30.464,20.313C30.418,20.322 30.38,20.322 30.349,20.327L30.272,20.327C30.18,20.327 30.096,20.318 30.026,20.294C29.95,20.276 29.881,20.252 29.827,20.219C29.773,20.187 29.727,20.144 29.681,20.102C29.643,20.06 29.604,20.013 29.581,19.966C29.466,20.037 29.359,20.097 29.259,20.14C29.159,20.187 29.059,20.224 28.967,20.252C28.867,20.28 28.767,20.299 28.675,20.308C28.575,20.322 28.476,20.327 28.368,20.327C28.199,20.327 28.038,20.308 27.884,20.276C27.738,20.243 27.608,20.196 27.5,20.135C27.385,20.078 27.301,20.004 27.239,19.919C27.178,19.835 27.147,19.737 27.147,19.633C27.147,19.544 27.178,19.465 27.247,19.399C27.308,19.338 27.401,19.277 27.508,19.23C27.616,19.179 27.738,19.141 27.877,19.104C28.015,19.071 28.161,19.038 28.299,19.01C28.445,18.982 28.591,18.953 28.729,18.926C28.867,18.902 28.99,18.874 29.098,18.846C29.205,18.818 29.297,18.785 29.359,18.747C29.428,18.71 29.459,18.668 29.459,18.621C29.459,18.569 29.435,18.527 29.397,18.494C29.359,18.462 29.305,18.438 29.244,18.415C29.174,18.396 29.105,18.382 29.029,18.372C28.944,18.363 28.867,18.358 28.798,18.358C28.721,18.358 28.645,18.363 28.568,18.377C28.499,18.391 28.43,18.41 28.368,18.438C28.307,18.466 28.253,18.499 28.207,18.546C28.169,18.588 28.138,18.64 28.13,18.701L27.232,18.701C27.247,18.565 27.301,18.447 27.393,18.349C27.485,18.246 27.608,18.166 27.754,18.101C27.9,18.035 28.061,17.983 28.245,17.951C28.422,17.922 28.606,17.904 28.798,17.904C28.998,17.904 29.197,17.918 29.382,17.946C29.566,17.974 29.735,18.016 29.873,18.077C30.019,18.133 30.134,18.213 30.218,18.302C30.303,18.396 30.342,18.508 30.342,18.635L30.342,19.769C30.342,19.797 30.357,19.826 30.395,19.849C30.426,19.877 30.472,19.891 30.534,19.891C30.541,19.891 30.564,19.887 30.61,19.882C30.664,19.877 30.725,19.863 30.802,19.84L30.802,20.219ZM29.459,19.165C29.405,19.183 29.328,19.202 29.236,19.221C29.144,19.24 29.044,19.254 28.936,19.272C28.829,19.291 28.721,19.31 28.606,19.328C28.499,19.347 28.407,19.371 28.314,19.399C28.23,19.422 28.153,19.455 28.099,19.493C28.046,19.526 28.015,19.568 28.015,19.619C28.015,19.666 28.03,19.708 28.053,19.741C28.076,19.774 28.115,19.802 28.153,19.821C28.192,19.844 28.238,19.858 28.291,19.868C28.345,19.877 28.399,19.887 28.453,19.887C28.622,19.887 28.798,19.849 28.975,19.779C29.159,19.708 29.32,19.601 29.459,19.455L29.459,19.165Z" style="fill:rgb(67,62,62);fill-rule:nonzero;"/>
    </g>
    <g transform="matrix(3.77409e-16,-6.16356,6.16356,3.77409e-16,430.756,1122.26)">
        <path d="M31.254,17.951L32.137,17.951L32.137,18.227C32.306,18.11 32.475,18.03 32.66,17.979C32.836,17.927 33.028,17.904 33.212,17.904C33.412,17.904 33.589,17.922 33.742,17.955C33.896,17.993 34.026,18.044 34.134,18.105C34.241,18.171 34.318,18.251 34.38,18.34C34.433,18.433 34.464,18.532 34.464,18.644L34.464,20.28L33.581,20.28L33.581,18.729C33.581,18.672 33.566,18.621 33.535,18.574C33.512,18.527 33.474,18.49 33.427,18.457C33.381,18.424 33.32,18.401 33.259,18.382C33.189,18.368 33.12,18.358 33.051,18.358C32.936,18.358 32.821,18.377 32.706,18.405C32.598,18.433 32.506,18.476 32.422,18.522C32.337,18.574 32.268,18.63 32.214,18.696C32.168,18.762 32.137,18.827 32.137,18.897L32.137,20.28L31.254,20.28L31.254,17.951Z" style="fill:rgb(67,62,62);fill-rule:nonzero;"/>
    </g>
    <g transform="matrix(3.77409e-16,-6.16356,6.16356,3.77409e-16,430.756,1122.26)">
        <path d="M38.803,20.219C38.726,20.247 38.665,20.266 38.611,20.28C38.557,20.294 38.504,20.308 38.465,20.313C38.419,20.322 38.381,20.322 38.35,20.327L38.273,20.327C38.181,20.327 38.097,20.318 38.028,20.294C37.951,20.276 37.882,20.252 37.828,20.219C37.774,20.187 37.728,20.144 37.682,20.102C37.644,20.06 37.605,20.013 37.582,19.966C37.467,20.037 37.359,20.097 37.26,20.14C37.16,20.187 37.06,20.224 36.968,20.252C36.868,20.28 36.768,20.299 36.676,20.308C36.576,20.322 36.476,20.327 36.369,20.327C36.2,20.327 36.039,20.308 35.885,20.276C35.739,20.243 35.609,20.196 35.501,20.135C35.386,20.078 35.302,20.004 35.24,19.919C35.179,19.835 35.148,19.737 35.148,19.633C35.148,19.544 35.179,19.465 35.248,19.399C35.309,19.338 35.401,19.277 35.509,19.23C35.616,19.179 35.739,19.141 35.878,19.104C36.016,19.071 36.161,19.038 36.3,19.01C36.446,18.982 36.592,18.953 36.73,18.926C36.868,18.902 36.991,18.874 37.098,18.846C37.206,18.818 37.298,18.785 37.359,18.747C37.429,18.71 37.459,18.668 37.459,18.621C37.459,18.569 37.436,18.527 37.398,18.494C37.359,18.462 37.306,18.438 37.244,18.415C37.175,18.396 37.106,18.382 37.029,18.372C36.945,18.363 36.868,18.358 36.799,18.358C36.722,18.358 36.645,18.363 36.569,18.377C36.499,18.391 36.43,18.41 36.369,18.438C36.308,18.466 36.254,18.499 36.208,18.546C36.169,18.588 36.139,18.64 36.131,18.701L35.233,18.701C35.248,18.565 35.302,18.447 35.394,18.349C35.486,18.246 35.609,18.166 35.755,18.101C35.901,18.035 36.062,17.983 36.246,17.951C36.423,17.922 36.607,17.904 36.799,17.904C36.999,17.904 37.198,17.918 37.383,17.946C37.567,17.974 37.736,18.016 37.874,18.077C38.02,18.133 38.135,18.213 38.219,18.302C38.304,18.396 38.342,18.508 38.342,18.635L38.342,19.769C38.342,19.797 38.358,19.826 38.396,19.849C38.427,19.877 38.473,19.891 38.534,19.891C38.542,19.891 38.565,19.887 38.611,19.882C38.665,19.877 38.726,19.863 38.803,19.84L38.803,20.219ZM37.459,19.165C37.406,19.183 37.329,19.202 37.237,19.221C37.144,19.24 37.045,19.254 36.937,19.272C36.83,19.291 36.722,19.31 36.607,19.328C36.499,19.347 36.407,19.371 36.315,19.399C36.231,19.422 36.154,19.455 36.1,19.493C36.046,19.526 36.016,19.568 36.016,19.619C36.016,19.666 36.031,19.708 36.054,19.741C36.077,19.774 36.116,19.802 36.154,19.821C36.192,19.844 36.238,19.858 36.292,19.868C36.346,19.877 36.4,19.887 36.453,19.887C36.622,19.887 36.799,19.849 36.975,19.779C37.16,19.708 37.321,19.601 37.459,19.455L37.459,19.165Z" style="fill:rgb(67,62,62);fill-rule:nonzero;"/>
    </g>
    <g transform="matrix(3.77409e-16,-6.16356,6.16356,3.77409e-16,430.756,1122.26)">
        <path d="M30.642,17.838C30.241,17.668 29.779,17.182 29.199,16.098L30.489,16.098L30.642,17.838Z" style="fill:rgb(44,45,45);fill-rule:nonzero;"/>
    </g>
    <g transform="matrix(3.77409e-16,-6.16356,6.16356,3.77409e-16,430.756,1122.26)">
        <path d="M74.108,30.842C74.108,30.523 73.849,30.264 73.53,30.264L20.753,30.264C20.434,30.264 20.175,30.523 20.175,30.842L20.175,55.256C20.175,55.575 20.434,55.834 20.753,55.834L73.53,55.834C73.849,55.834 74.108,55.575 74.108,55.256L74.108,30.842Z" style="fill:rgb(122,156,142);fill-rule:nonzero;"/>
    </g>
    <g transform="matrix(3.77409e-16,-6.16356,6.16356,3.77409e-16,430.756,1122.26)">
        <rect x="12.17" y="2.205" width="0.471" height="69.331" style="fill:rgb(173,176,175);"/>
    </g>
    <g transform="matrix(3.77409e-16,-6.16356,6.16356,3.77409e-16,430.756,1122.26)">
        <rect x="1" y="2.205" width="0.471" height="69.331" style="fill:rgb(222,222,220);"/>
    </g>
    <g transform="matrix(3.77409e-16,-6.16356,6.16356,3.77409e-16,430.756,1122.26)">
        <path d="M116.74,3.218C116.74,2.659 116.286,2.205 115.727,2.205L81.902,2.205C81.343,2.205 80.888,2.659 80.888,3.218L80.888,10.278C80.888,10.837 81.343,11.291 81.902,11.291L115.727,11.291C116.286,11.291 116.74,10.837 116.74,10.278L116.74,3.218Z" style="fill:rgb(207,204,204);fill-rule:nonzero;"/>
    </g>
    <g transform="matrix(3.77409e-16,-6.16356,6.16356,3.77409e-16,430.756,1122.26)">
        <path d="M110.945,46.178C110.945,45.515 110.406,44.976 109.743,44.976L101.559,44.976C100.896,44.976 100.357,45.515 100.357,46.178L100.357,54.492C100.357,55.155 100.896,55.693 101.559,55.693L109.743,55.693C110.406,55.693 110.945,55.155 110.945,54.492L110.945,46.178Z" style="fill-rule:nonzero;stroke:rgb(33,33,34);stroke-width:1.32px;"/>
    </g>
    <g transform="matrix(3.77409e-16,-6.16356,6.16356,3.77409e-16,430.756,1122.26)">
        <path d="M100.928,50.397C100.928,49.598 101.144,48.968 101.578,48.508C102.011,48.054 102.566,47.824 103.25,47.824C103.697,47.824 104.103,47.932 104.462,48.149C104.821,48.359 105.092,48.657 105.281,49.042C105.471,49.422 105.566,49.855 105.566,50.343C105.566,50.837 105.464,51.277 105.268,51.663C105.071,52.049 104.787,52.347 104.421,52.543C104.063,52.739 103.67,52.841 103.25,52.841C102.79,52.841 102.383,52.733 102.025,52.509C101.666,52.292 101.395,51.988 101.205,51.609C101.022,51.23 100.928,50.823 100.928,50.397ZM101.591,50.41C101.591,50.993 101.747,51.453 102.065,51.792C102.376,52.123 102.769,52.292 103.243,52.292C103.724,52.292 104.124,52.123 104.435,51.785C104.746,51.446 104.902,50.965 104.902,50.343C104.902,49.943 104.835,49.598 104.706,49.307C104.57,49.015 104.374,48.785 104.117,48.623C103.86,48.46 103.575,48.379 103.257,48.379C102.803,48.379 102.411,48.535 102.086,48.846C101.754,49.158 101.591,49.679 101.591,50.41Z" style="fill:rgb(189,23,22);fill-rule:nonzero;"/>
    </g>
    <g transform="matrix(3.77409e-16,-6.16356,6.16356,3.77409e-16,430.756,1122.26)">
        <path d="M106.364,52.76L106.364,47.912L107.007,47.912L107.007,50.315L109.41,47.912L110.284,47.912L108.253,49.875L110.372,52.76L109.525,52.76L107.799,50.309L107.007,51.081L107.007,52.76L106.364,52.76Z" style="fill:rgb(189,23,22);fill-rule:nonzero;"/>
    </g>
    <g transform="matrix(3.77409e-16,-6.16356,6.16356,3.77409e-16,430.756,1122.26)">
        <rect x="89.594" y="33.295" width="1.121" height="4.799" style="fill:white;"/>
    </g>
    <g transform="matrix(3.77409e-16,-6.16356,6.16356,3.77409e-16,430.756,1122.26)">
        <rect x="87.729" y="35.031" width="4.799" height="1.121" style="fill:white;"/>
    </g>
    <g transform="matrix(3.77409e-16,-6.16356,6.16356,3.77409e-16,430.756,1122.26)">
        <path d="M84.873,35.523C84.873,38.503 87.263,40.954 90.167,40.954C93.071,40.954 95.461,38.503 95.461,35.524C95.461,32.544 93.071,30.093 90.167,30.093C87.263,30.093 84.873,32.544 84.873,35.523Z" style="fill-rule:nonzero;stroke:rgb(33,33,34);stroke-width:1.26px;"/>
    </g>
    <g transform="matrix(3.77409e-16,-6.16356,6.16356,3.77409e-16,430.756,1122.26)">
        <path d="M84.873,50.291C84.873,53.27 87.263,55.722 90.167,55.722C93.071,55.722 95.461,53.27 95.461,50.291C95.461,47.312 93.071,44.86 90.167,44.86C87.263,44.86 84.873,47.312 84.873,50.291Z" style="fill-rule:nonzero;stroke:rgb(33,33,34);stroke-width:1.26px;"/>
    </g>
    <g transform="matrix(3.77409e-16,-6.16356,6.16356,3.77409e-16,430.756,1122.26)">
        <rect x="87.705" y="49.729" width="4.925" height="1.125" style="fill:white;"/>
    </g>
    <g transform="matrix(3.77409e-16,-6.16356,6.16356,3.77409e-16,430.756,1122.26)">
        <path d="M100.357,35.694C100.357,38.674 102.747,41.125 105.651,41.125C108.555,41.125 110.945,38.674 110.945,35.695C110.945,32.715 108.555,30.264 105.651,30.264C102.747,30.264 100.357,32.715 100.357,35.694Z" style="fill-rule:nonzero;stroke:rgb(33,33,34);stroke-width:1.26px;"/>
    </g>
    <g transform="matrix(3.77409e-16,-6.16356,6.16356,3.77409e-16,430.756,1122.26)">
        <path d="M109.495,35.528L103.367,38.523L103.367,32.533L109.495,35.528Z" style="fill:white;fill-rule:nonzero;"/>
    </g>
    <g transform="matrix(3.77409e-16,-6.16356,6.16356,3.77409e-16,430.756,1122.26)">
        <rect x="125.167" y="2.205" width="3.945" height="30.019" style="fill:rgb(240,238,235);"/>
    </g>
    <g transform="matrix(3.77409e-16,-6.16356,6.16356,3.77409e-16,430.756,1122.26)">
        <path d="M149,25.4C149,24.923 148.613,24.535 148.135,24.535L136.407,24.535C135.929,24.535 135.542,24.923 135.542,25.4L135.542,27.13C135.542,27.608 135.929,27.995 136.407,27.995L148.135,27.995C148.613,27.995 149,27.608 149,27.13L149,25.4Z" style="fill:rgb(243,243,241);fill-rule:nonzero;"/>
    </g>
    <g transform="matrix(3.77409e-16,-6.16356,6.16356,3.77409e-16,430.756,1122.26)">
        <path d="M149,6.632C149,6.141 148.601,5.742 148.11,5.742L136.432,5.742C135.94,5.742 135.542,6.141 135.542,6.632L135.542,8.413C135.542,8.904 135.94,9.303 136.432,9.303L148.11,9.303C148.601,9.303 149,8.904 149,8.413L149,6.632Z" style="fill:rgb(243,243,241);fill-rule:nonzero;"/>
    </g>
    <g transform="matrix(3.77409e-16,-6.16356,6.16356,3.77409e-16,430.756,1122.26)">
        <path d="M129.112,32.225L129.112,2.205L141.971,9.711L141.971,24.72L129.112,32.225Z" style="fill:rgb(234,234,233);fill-rule:nonzero;"/>
    </g>
    <g transform="matrix(3.77409e-16,-6.16356,6.16356,3.77409e-16,430.756,1122.26)">
        <path d="M135.783,28.119L135.836,6.063C140.277,7.318 144.655,8.51 148.987,8.914L148.987,25.456C144.23,25.522 139.854,26.542 135.783,28.119Z" style="fill:rgb(222,222,220);fill-rule:nonzero;"/>
    </g>
    <g transform="matrix(3.77409e-16,-6.16356,6.16356,3.77409e-16,430.756,1122.26)">
        <path d="M135.789,27.013L135.789,7.304C140.244,8.454 144.655,9.077 149,9.447L149,24.612C144.228,24.672 139.872,25.567 135.789,27.013Z" style="fill:rgb(234,234,233);fill-rule:nonzero;"/>
    </g>
    <g transform="matrix(3.77409e-16,-6.16356,6.16356,3.77409e-16,430.756,1122.26)">
        <path d="M135.542,17.158C139.476,15.101 144.327,15.008 149,14.53L149,19.171C144.464,18.857 139.854,19.098 135.542,17.158Z" style="fill:rgb(215,215,215);fill-rule:nonzero;"/>
    </g>
    <g transform="matrix(3.77409e-16,-6.16356,6.16356,3.77409e-16,430.756,1122.26)">
        <path d="M149.06,16.46C149.06,16.164 148.799,15.924 148.478,15.924L136.014,15.924C135.692,15.924 135.431,16.164 135.431,16.46C135.431,16.46 135.334,17.263 135.431,17.531C135.52,17.778 135.692,18.067 136.014,18.067L148.478,18.067C148.799,18.067 149.06,17.827 149.06,17.531L149.06,16.46Z" style="fill:rgb(227,227,225);fill-rule:nonzero;"/>
    </g>
    <g transform="matrix(3.77409e-16,-6.16356,6.16356,3.77409e-16,430.756,1122.26)">
        <path d="M122.713,9.304L123.692,11.413L121.734,11.413L122.713,9.304Z" style="fill:rgb(222,222,220);fill-rule:nonzero;"/>
    </g>
    <g transform="matrix(3.77409e-16,-6.16356,6.16356,3.77409e-16,430.756,1122.26)">
        <rect x="122.281" y="11.239" width="0.768" height="4.11" style="fill:rgb(222,222,220);"/>
    </g>
    <g transform="matrix(3.77409e-16,-6.16356,6.16356,3.77409e-16,430.756,1122.26)">
        <rect x="124.652" y="19.565" width="0.515" height="52.329" style="fill:rgb(222,222,220);"/>
    </g>
    <g transform="matrix(3.77409e-16,-6.16356,6.16356,3.77409e-16,430.756,1122.26)">
        <path d="M125.167,19.601C125.126,18.573 124.744,17.626 124.079,16.903C123.174,15.919 121.825,15.436 120.395,15.584L120.388,16.076C121.671,15.943 122.881,16.376 123.692,17.259C124.288,17.907 124.631,18.756 124.668,19.678L125.167,19.601Z" style="fill:rgb(222,222,220);fill-rule:nonzero;"/>
    </g>
    <g transform="matrix(3.77409e-16,-6.16356,6.16356,3.77409e-16,430.756,1122.26)">
        <rect x="40.622" y="15.557" width="80.798" height="0.5" style="fill:rgb(222,222,220);"/>
    </g>
    <g transform="matrix(3.77409e-16,-6.16356,6.16356,3.77409e-16,430.756,1122.26)">
        <path d="M27.923,1.887C27.811,4.777 28.635,7.651 30.269,10.071C32.633,13.572 36.458,15.788 40.601,16.058L40.622,15.525C36.645,15.267 32.972,13.138 30.703,9.778C29.134,7.454 28.343,4.696 28.451,1.921L27.923,1.887Z" style="fill:rgb(222,222,220);fill-rule:nonzero;"/>
    </g>
    <g transform="matrix(3.77409e-16,-6.16356,6.16356,3.77409e-16,430.756,1122.26)">
        <path d="M122.525,20.808C122.325,20.808 122.134,20.762 121.961,20.665C121.784,20.571 121.643,20.427 121.536,20.24C121.433,20.053 121.379,19.83 121.379,19.576C121.379,19.365 121.413,19.181 121.48,19.024C121.546,18.864 121.637,18.737 121.75,18.634C121.864,18.533 121.987,18.46 122.121,18.413C122.258,18.363 122.391,18.34 122.528,18.34C122.726,18.34 122.913,18.386 123.087,18.477C123.26,18.57 123.404,18.71 123.511,18.894C123.618,19.081 123.671,19.305 123.671,19.562C123.671,19.799 123.631,20 123.554,20.164C123.477,20.331 123.38,20.458 123.263,20.551C123.147,20.645 123.023,20.708 122.893,20.748C122.766,20.788 122.642,20.808 122.525,20.808ZM122.532,20.281C122.656,20.281 122.772,20.27 122.882,20.247C122.996,20.227 123.097,20.19 123.186,20.137C123.274,20.083 123.347,20.01 123.4,19.92C123.451,19.826 123.477,19.712 123.477,19.576C123.477,19.389 123.43,19.241 123.337,19.138C123.247,19.031 123.13,18.961 122.99,18.924C122.849,18.887 122.696,18.867 122.532,18.867C122.442,18.867 122.345,18.874 122.248,18.884C122.148,18.897 122.048,18.927 121.941,18.971C121.837,19.018 121.75,19.091 121.68,19.191C121.61,19.292 121.573,19.419 121.573,19.579C121.573,19.736 121.61,19.863 121.683,19.963C121.757,20.06 121.847,20.134 121.951,20.177C122.058,20.224 122.161,20.25 122.254,20.264C122.352,20.274 122.445,20.281 122.532,20.281Z" style="fill:rgb(214,210,210);fill-rule:nonzero;"/>
    </g>
    <g transform="matrix(3.77409e-16,-6.16356,6.16356,3.77409e-16,430.756,1122.26)">
        <path d="M123.043,23.026C122.859,23.026 122.722,22.97 122.629,22.86C122.535,22.746 122.475,22.616 122.448,22.462C122.421,22.312 122.408,22.151 122.408,21.984L122.408,21.837L121.83,21.837C121.767,21.837 121.713,21.844 121.68,21.861C121.643,21.874 121.617,21.904 121.597,21.951C121.58,21.998 121.57,22.068 121.57,22.165L121.419,22.165L121.419,21.052L121.57,21.052C121.57,21.146 121.58,21.216 121.6,21.263C121.62,21.306 121.647,21.336 121.683,21.35C121.717,21.363 121.767,21.369 121.83,21.369L123.227,21.369C123.29,21.369 123.34,21.363 123.374,21.35C123.411,21.336 123.437,21.31 123.457,21.263C123.477,21.216 123.487,21.146 123.487,21.052L123.641,21.052L123.658,21.684C123.658,21.717 123.658,21.751 123.661,21.791L123.661,22.108C123.654,22.238 123.644,22.362 123.624,22.482C123.604,22.599 123.548,22.723 123.457,22.843C123.367,22.967 123.23,23.026 123.043,23.026ZM123.04,22.526C123.217,22.526 123.334,22.472 123.394,22.372C123.451,22.268 123.481,22.131 123.481,21.964C123.481,21.934 123.481,21.894 123.477,21.837L122.589,21.837L122.589,21.988C122.589,22.148 122.615,22.278 122.672,22.375C122.726,22.475 122.849,22.526 123.04,22.526Z" style="fill:rgb(214,210,210);fill-rule:nonzero;"/>
    </g>
    <g transform="matrix(3.77409e-16,-6.16356,6.16356,3.77409e-16,430.756,1122.26)">
        <path d="M122.148,25.191L121.419,25.174L121.419,23.203L121.57,23.203C121.57,23.341 121.59,23.427 121.63,23.468C121.667,23.504 121.734,23.524 121.83,23.524L123.22,23.524C123.284,23.524 123.334,23.517 123.367,23.508C123.404,23.494 123.43,23.464 123.451,23.418C123.471,23.371 123.481,23.301 123.481,23.203L123.631,23.203L123.631,25.038L123.056,25.068L123.056,24.918C123.183,24.884 123.277,24.844 123.33,24.801C123.384,24.757 123.421,24.707 123.43,24.654C123.444,24.597 123.451,24.517 123.451,24.406L123.451,23.992L122.669,23.992L122.669,24.216C122.669,24.293 122.676,24.353 122.689,24.39C122.702,24.426 122.729,24.453 122.766,24.47C122.806,24.483 122.866,24.493 122.946,24.5L122.946,24.657L122.211,24.657L122.211,24.507C122.291,24.503 122.352,24.493 122.391,24.473C122.428,24.456 122.455,24.43 122.468,24.393C122.482,24.353 122.489,24.296 122.489,24.219L122.489,23.992L121.967,23.992C121.881,23.992 121.817,23.992 121.777,23.999C121.737,24.002 121.703,24.016 121.677,24.032C121.65,24.052 121.63,24.082 121.62,24.126C121.607,24.169 121.6,24.229 121.6,24.309L121.6,24.487C121.6,24.563 121.61,24.634 121.63,24.7C121.647,24.77 121.697,24.837 121.777,24.901C121.854,24.968 121.977,25.011 122.148,25.038L122.148,25.191Z" style="fill:rgb(214,210,210);fill-rule:nonzero;"/>
    </g>
    <g transform="matrix(3.77409e-16,-6.16356,6.16356,3.77409e-16,430.756,1122.26)">
        <path d="M123.481,27.799C123.481,27.696 123.471,27.619 123.451,27.573C123.427,27.529 123.397,27.499 123.357,27.489C123.314,27.479 123.247,27.472 123.153,27.472L121.399,27.472L121.399,27.322L123.12,25.875L121.9,25.875C121.807,25.875 121.74,25.882 121.7,25.892C121.656,25.906 121.626,25.932 121.603,25.979C121.58,26.026 121.57,26.103 121.57,26.206L121.419,26.206L121.419,25.384L121.57,25.384C121.57,25.481 121.58,25.555 121.603,25.598C121.626,25.642 121.656,25.668 121.7,25.678C121.74,25.688 121.807,25.695 121.9,25.695L123.03,25.695C123.12,25.695 123.19,25.692 123.234,25.688C123.28,25.682 123.32,25.672 123.354,25.651C123.391,25.635 123.417,25.605 123.437,25.561C123.461,25.518 123.474,25.461 123.481,25.388L123.631,25.388L123.631,26.032L122.144,27.292L123.153,27.292C123.237,27.292 123.3,27.285 123.344,27.275C123.387,27.262 123.421,27.235 123.444,27.188C123.471,27.145 123.481,27.071 123.481,26.975L123.631,26.975L123.631,27.799L123.481,27.799Z" style="fill:rgb(214,210,210);fill-rule:nonzero;"/>
    </g>
    <g transform="matrix(3.77409e-16,-6.16356,6.16356,3.77409e-16,430.756,1122.26)">
        <rect x="0.938" y="1.887" width="26.975" height="0.635" style="fill:rgb(222,222,220);"/>
    </g>
    <g transform="matrix(3.77409e-16,-6.16356,6.16356,3.77409e-16,430.756,1122.26)">
        <rect x="1" y="70.987" width="12.981" height="0.549" style="fill:rgb(222,222,220);"/>
    </g>
    <g transform="matrix(3.77409e-16,-6.16356,6.16356,3.77409e-16,430.756,1122.26)">
        <rect x="1" y="70.987" width="12.981" height="0.549" style="fill:rgb(222,222,220);"/>
    </g>
</svg>
