<?xml version="1.0" encoding="UTF-8" standalone="no"?>
<!DOCTYPE svg PUBLIC "-//W3C//DTD SVG 1.1//EN" "http://www.w3.org/Graphics/SVG/1.1/DTD/svg11.dtd">
<svg width="100%" height="100%" viewBox="0 0 1320 1320" version="1.1" xmlns="http://www.w3.org/2000/svg" xmlns:xlink="http://www.w3.org/1999/xlink" xml:space="preserve" xmlns:serif="http://www.serif.com/" style="fill-rule:evenodd;clip-rule:evenodd;stroke-linecap:round;stroke-miterlimit:1;">
    <g id="carbs3" transform="matrix(0.877144,0,0,0.826611,88.7598,-322.763)">
        <g id="Bowl" transform="matrix(1,0,0,1,2.55795e-13,-34.4214)">
            <g id="Boden" transform="matrix(1.05258,0,0,2.06989,-68.0802,-636.172)">
                <rect x="529.414" y="1052.98" width="307.984" height="28.266" style="fill:white;"/>
            </g>
            <g transform="matrix(1.02882,0,0,2.08182,-28.6684,-629.246)">
                <path d="M1043.18,860.482C1043.18,971.131 871.871,1060.96 660.872,1060.96C449.873,1060.96 278.568,971.131 278.568,860.482L311.812,860.482C311.812,961.509 468.22,1043.53 660.872,1043.53C853.523,1043.53 1009.93,961.509 1009.93,860.482L1043.18,860.482Z" style="fill:white;"/>
            </g>
            <g id="Rand" transform="matrix(1.14006,0,0,1.63914,-116.878,116.582)">
                <rect x="343.801" y="637.859" width="661.199" height="22.141" style="fill:white;"/>
            </g>
        </g>
        <g id="Dampf" transform="matrix(1.58216e-17,0.378731,-0.451652,-1.67888e-17,993.585,547.463)">
            <path d="M225,864C294,795 361.5,657 432,657C502.5,657 576,865.5 648,864C720,862.5 792,648 864,648C936,648 1020,853.5 1080,864C1140,874.5 1176,762 1224,711" style="fill:none;stroke:white;stroke-width:67.22px;"/>
        </g>
    </g>
</svg>
