<?xml version="1.0" encoding="UTF-8" standalone="no"?>
<!DOCTYPE svg PUBLIC "-//W3C//DTD SVG 1.1//EN" "http://www.w3.org/Graphics/SVG/1.1/DTD/svg11.dtd">
<svg width="100%" height="100%" viewBox="0 0 1320 1320" version="1.1" xmlns="http://www.w3.org/2000/svg" xmlns:xlink="http://www.w3.org/1999/xlink" xml:space="preserve" xmlns:serif="http://www.serif.com/" style="fill-rule:evenodd;clip-rule:evenodd;stroke-linecap:round;stroke-miterlimit:1;">
    <g id="carbs3" transform="matrix(0.877144,0,0,0.826611,88.7598,-322.763)">
        <g id="Bowl" transform="matrix(1,0,0,1,-8.75,539.128)">
            <g transform="matrix(-1.08167,-1.47413e-16,1.20187e-16,-1.08026,1309.7,1212.03)">
                <g id="bowl">
                    <path d="M306.064,670.964L263.214,670.964C229.017,614.112 211.014,549.621 211.014,483.974C211.014,277.569 385.601,109.994 600.643,109.994C815.685,109.994 990.272,277.569 990.272,483.974C990.272,549.621 972.269,614.112 938.071,670.964L895.911,670.964C922.159,631.911 939.756,587.285 946.186,539.435C950.653,518.484 952.929,497.093 952.929,475.559C952.929,294.688 795.397,147.843 601.362,147.843C407.326,147.843 249.794,294.688 249.794,475.559C249.794,493.832 251.433,512.003 254.659,529.889C259.927,581.351 278.078,629.325 306.064,670.964Z" style="fill:white;"/>
                </g>
            </g>
            <g transform="matrix(6.56167,0,0,3.07613,-328.469,-1136.31)">
                <path d="M150.643,500.991C181.988,500.991 207.436,517.096 207.436,536.933C207.436,556.769 181.988,572.874 150.643,572.874C119.298,572.874 93.85,556.769 93.85,536.933C93.85,517.096 119.298,500.991 150.643,500.991ZM150.099,512.545C123.347,512.545 101.629,523.004 101.629,535.887C101.629,548.769 123.347,559.228 150.099,559.228C176.851,559.228 198.569,548.769 198.569,535.887C198.569,523.004 176.851,512.545 150.099,512.545Z" style="fill:white;"/>
            </g>
        </g>
        <g transform="matrix(1.58216e-17,0.378731,-0.451652,-1.67888e-17,1002.06,438.628)">
            <path d="M225,864C294,795 361.5,657 432,657C502.5,657 576,865.5 648,864C720,862.5 792,648 864,648C936,648 1020,853.5 1080,864C1140,874.5 1176,762 1224,711" style="fill:none;stroke:white;stroke-width:67.22px;"/>
        </g>
    </g>
</svg>
