<?xml version="1.0" encoding="UTF-8" standalone="no"?>
<!DOCTYPE svg PUBLIC "-//W3C//DTD SVG 1.1//EN" "http://www.w3.org/Graphics/SVG/1.1/DTD/svg11.dtd">
<svg width="100%" height="100%" viewBox="0 0 1320 1320" version="1.1" xmlns="http://www.w3.org/2000/svg" xmlns:xlink="http://www.w3.org/1999/xlink" xml:space="preserve" xmlns:serif="http://www.serif.com/" style="fill-rule:evenodd;clip-rule:evenodd;stroke-linecap:round;stroke-miterlimit:1;">
    <g id="carbs3" transform="matrix(1.06493,0,0,1.09842,26.9312,-630.862)">
        <g id="Bowl" transform="matrix(1.00276,0,0,1.007,-59.1476,-46.4189)">
            <g transform="matrix(1.02882,0,0,2.08182,-28.6684,-629.246)">
                <path d="M1043.18,860.482C1043.18,971.131 871.871,1060.96 660.872,1060.96C449.873,1060.96 278.568,971.131 278.568,860.482L311.812,860.482C311.812,961.509 468.22,1043.53 660.872,1043.53C853.523,1043.53 1009.93,961.509 1009.93,860.482L1043.18,860.482Z" style="fill:white;"/>
            </g>
            <g id="schuesselrand" transform="matrix(1.85711,0,0,0.773565,-418.174,757.804)">
                <path d="M732.989,405.65C766.954,436.299 787.648,476.916 787.648,521.445C787.648,616.801 692.747,694.218 575.855,694.218C458.964,694.218 364.063,616.801 364.063,521.445C364.063,426.088 458.964,348.671 575.855,348.671C614.633,348.671 650.99,357.191 682.265,372.059C680.743,379.118 679.268,386.111 677.843,393.025C648.477,377.464 613.451,368.422 575.855,368.422C472.327,368.422 388.274,436.989 388.274,521.445C388.274,605.9 472.327,674.467 575.855,674.467C679.384,674.467 763.437,605.9 763.437,521.445C763.437,487.416 749.792,455.967 726.725,430.543C728.819,422.423 730.909,414.119 732.989,405.65Z" style="fill:white;stroke:white;stroke-width:21.61px;"/>
            </g>
            <g id="suppenrand" transform="matrix(0.771062,0,0,1.17824,92.198,574.651)">
                <g id="suppenspiegel">
                    <path id="suppenrand1" serif:id="suppenrand" d="M552.977,506.966C446.663,517.4 381.758,536.038 381.758,556.132C381.758,561.212 385.923,566.27 394.145,571.173C385.923,566.27 381.758,561.212 381.758,556.132C381.758,536.038 446.663,517.4 552.977,506.966Z" style="fill:white;stroke:white;stroke-width:30.27px;"/>
                </g>
            </g>
        </g>
        <g id="Loeffel" transform="matrix(1,0,0,1,47.7611,-2.82029)">
            <g transform="matrix(1.15902,0.412884,-0.371076,0.722421,45.0414,439.79)">
                <path d="M739.06,514.427C721.157,525.096 705.823,546.146 695.208,573.664C680.966,579.855 666.756,587.492 652.723,596.614C665.713,524.196 699.091,468.505 740.482,452.082C739.876,473.471 739.404,494.302 739.06,514.427ZM790.61,451.806C827.658,466.075 858.37,511.769 873.931,572.829C859.878,565.89 844.967,560.76 829.444,557.51C818.336,535.518 803.834,519.299 787.458,511.62C788.583,492.285 789.638,472.304 790.61,451.806Z" style="fill:white;stroke:white;stroke-width:7.06px;"/>
            </g>
            <g id="Loeffel1" serif:id="Loeffel" transform="matrix(0.862386,0.313354,-0.32384,0.600622,81.1702,409.443)">
                <path d="M959.023,642.158C952.168,585.16 948.184,517.13 948.184,444.1C948.184,243.417 978.272,80.487 1015.33,80.487C1052.39,80.487 1082.48,243.417 1082.48,444.1C1082.48,506.935 1079.53,566.069 1074.34,617.659C1068.55,618.391 1062.65,619.227 1056.64,620.166C1062.74,566.095 1066.33,499.614 1066.33,427.772C1066.33,246.643 1043.48,99.589 1015.33,99.589C987.186,99.589 964.333,246.643 964.333,427.772C964.333,507.459 968.756,580.55 976.107,637.426C970.459,638.933 964.763,640.51 959.023,642.158Z" style="fill:white;stroke:white;stroke-width:36.69px;"/>
            </g>
        </g>
    </g>
</svg>
