<?xml version="1.0" encoding="UTF-8" standalone="no"?>
<!DOCTYPE svg PUBLIC "-//W3C//DTD SVG 1.1//EN" "http://www.w3.org/Graphics/SVG/1.1/DTD/svg11.dtd">
<svg width="100%" height="100%" viewBox="0 0 1320 1320" version="1.1" xmlns="http://www.w3.org/2000/svg" xmlns:xlink="http://www.w3.org/1999/xlink" xml:space="preserve" xmlns:serif="http://www.serif.com/" style="fill-rule:evenodd;clip-rule:evenodd;stroke-linejoin:round;stroke-miterlimit:2;">
    <g id="battery" transform="matrix(1,0,0,1,1.13687e-13,-22.5937)">
        <g id="Blitz" transform="matrix(0.754919,0.361674,-0.426581,0.890401,383.342,-129.777)">
            <path d="M744.937,593.533L816.63,557.152L729.301,900.143L740.308,649.652L660,695.61L660,453.555L747.316,415.929L744.937,593.533Z" style="fill:white;"/>
        </g>
        <g transform="matrix(1.11708,0,0,1.37944,-62.8373,-311.751)">
            <path d="M838.936,572.423L838.936,888.115C838.936,940.56 795.951,983.139 743.005,983.139L551.145,983.139C498.2,983.139 455.215,940.56 455.215,888.115L455.215,572.423C455.215,519.977 498.2,477.399 551.145,477.399L743.005,477.399C795.951,477.399 838.936,519.977 838.936,572.423ZM808.539,577.401C808.539,540.634 778.403,510.783 741.285,510.783L555.536,510.783C518.418,510.783 488.283,540.634 488.283,577.401L488.283,887.591C488.283,924.359 518.418,954.209 555.536,954.209L741.285,954.209C778.403,954.209 808.539,924.359 808.539,887.591L808.539,577.401Z" style="fill:white;"/>
        </g>
        <g transform="matrix(1,0,0,1,38.2383,114.588)">
            <path d="M709.078,218.931L534.445,218.931C525.596,213.058 520.938,206.396 520.938,199.615C520.938,178.293 566.115,160.982 621.762,160.982C677.408,160.982 722.586,178.293 722.586,199.615C722.586,206.396 717.927,213.058 709.078,218.931Z" style="fill:white;"/>
        </g>
    </g>
</svg>
