<?xml version="1.0" encoding="UTF-8" standalone="no"?>
<!DOCTYPE svg PUBLIC "-//W3C//DTD SVG 1.1//EN" "http://www.w3.org/Graphics/SVG/1.1/DTD/svg11.dtd">
<svg width="100%" height="100%" viewBox="0 0 1320 1320" version="1.1" xmlns="http://www.w3.org/2000/svg" xmlns:xlink="http://www.w3.org/1999/xlink" xml:space="preserve" xmlns:serif="http://www.serif.com/" style="fill-rule:evenodd;clip-rule:evenodd;stroke-linejoin:round;stroke-miterlimit:2;">
    <g id="vial" transform="matrix(1,0,0,1,5.68434e-14,-22.5937)">
        <g transform="matrix(1.11708,0,0,1.12774,-62.8373,-64.2911)">
            <path d="M706.76,477.399L743.005,477.399C795.951,477.399 838.936,519.977 838.936,572.423L838.936,888.115C838.936,940.56 795.951,983.139 743.005,983.139L551.145,983.139C498.2,983.139 455.215,940.56 455.215,888.115L455.215,572.423C455.215,519.977 498.2,477.399 551.145,477.399L578.9,477.399L578.9,510.783L555.536,510.783C518.418,510.783 488.283,540.634 488.283,577.401L488.283,887.591C488.283,924.359 518.418,954.209 555.536,954.209L741.285,954.209C778.403,954.209 808.539,924.359 808.539,887.591L808.539,577.401C808.539,540.634 778.403,510.783 741.285,510.783L706.76,510.783L706.76,477.399Z" style="fill:white;"/>
        </g>
        <g transform="matrix(1.12797,0,0,1.18874,-68.0785,-84.6115)">
            <path d="M785.249,340.496L785.249,392.206C785.249,412.904 767.54,429.707 745.727,429.707L545.229,429.707C523.416,429.707 505.706,412.904 505.706,392.206L505.706,340.496C505.706,319.798 523.416,302.994 545.229,302.994L745.727,302.994C767.54,302.994 785.249,319.798 785.249,340.496ZM757.716,348.508C757.716,338.362 749.035,330.125 738.342,330.125L553.629,330.125C542.937,330.125 534.256,338.362 534.256,348.508L534.256,385.274C534.256,395.42 542.937,403.657 553.629,403.657L738.342,403.657C749.035,403.657 757.716,395.42 757.716,385.274L757.716,348.508Z" style="fill:white;"/>
        </g>
        <g transform="matrix(1.29848,0,0,0.924781,-235.909,49.6446)">
            <rect x="740.82" y="407.183" width="30.035" height="51.783" style="fill:white;"/>
        </g>
        <g transform="matrix(1.29848,0,0,0.924781,-416.69,49.6446)">
            <rect x="740.82" y="407.183" width="30.035" height="51.783" style="fill:white;"/>
        </g>
    </g>
</svg>
