<?xml version="1.0" encoding="UTF-8" standalone="no"?>
<!DOCTYPE svg PUBLIC "-//W3C//DTD SVG 1.1//EN" "http://www.w3.org/Graphics/SVG/1.1/DTD/svg11.dtd">
<svg width="100%" height="100%" viewBox="0 0 1320 1320" version="1.1" xmlns="http://www.w3.org/2000/svg" xmlns:xlink="http://www.w3.org/1999/xlink" xml:space="preserve" xmlns:serif="http://www.serif.com/" style="fill-rule:evenodd;clip-rule:evenodd;stroke-linecap:round;stroke-miterlimit:1;">
    <g id="IOB" transform="matrix(0.970554,0,0,0.95912,9.54591,29.3244)">
        <g id="Welle" transform="matrix(0.691868,0,0,0.596051,215.631,341.323)">
            <path d="M18,648C84,576 147,432 216,432C285,432 360,648 432,648C504,648 576,432 648,432C720,432 792,648 864,648C936,648 1008,432 1080,432C1152,432 1224,576 1296,648" style="fill:none;stroke:white;stroke-width:38.49px;"/>
        </g>
        <g transform="matrix(1.02349e-16,1.52683,-2.34685,1.56125e-16,1109.75,-688.552)">
            <path d="M929.137,210.495C913.516,202.635 901.112,194.774 901.112,186.914C901.112,179.241 912.93,171.568 928.023,163.896L991.56,163.896L991.56,163.951L1039.62,163.951L1039.62,120.589L1143.39,187.299L1039.62,254.01L1039.62,210.648L1026.67,210.648L1026.67,210.495L929.137,210.495Z" style="fill:white;"/>
        </g>
        <g transform="matrix(7.89634e-17,-1.52683,2.34685,1.36681e-16,230.625,1919.79)">
            <path d="M899.299,163.951L1039.62,163.951L1039.62,120.589L1143.39,187.299L1039.62,254.01L1039.62,210.648L902.44,210.648C917.096,203.13 928.443,195.612 928.443,188.093C928.443,180.046 915.442,171.998 899.299,163.951Z" style="fill:white;"/>
        </g>
    </g>
</svg>
