<?xml version="1.0" encoding="UTF-8" standalone="no"?>
<!DOCTYPE svg PUBLIC "-//W3C//DTD SVG 1.1//EN" "http://www.w3.org/Graphics/SVG/1.1/DTD/svg11.dtd">
<svg width="100%" height="100%" viewBox="0 0 1320 1320" version="1.1" xmlns="http://www.w3.org/2000/svg" xmlns:xlink="http://www.w3.org/1999/xlink" xml:space="preserve" xmlns:serif="http://www.serif.com/" style="fill-rule:evenodd;clip-rule:evenodd;stroke-linejoin:round;stroke-miterlimit:2;">
    <g id="cannula">
        <g id="Nadel" transform="matrix(5.74731,0,0,6.44866,6.92236,-9.93048)">
            <path d="M111.842,163.501L111.515,163.501L111.515,115.24L115.986,115.24L115.986,158.379L111.842,163.501Z" style="fill:white;"/>
        </g>
        <g id="Klebepad" transform="matrix(5.74731,0,0,62.1371,7.78283,-6523.51)">
            <ellipse cx="113.6" cy="115.168" rx="72.565" ry="1.618" style="fill:white;fill-opacity:0.62;"/>
        </g>
        <g id="Schlauch" transform="matrix(5.89273,-0.0992742,0.0815459,6.09387,-29.2204,-141.671)">
            <path d="M120.189,82.173L120.239,82.22C117.634,85.743 116.155,89.641 115.911,93.942L115.911,101.241L113.598,101.241L113.598,93.775L113.63,93.775C113.604,89.093 115.127,84.743 118.183,80.747L118.129,80.697L118.75,79.898L118.831,79.972C123.142,73.688 130.17,70.941 140.687,71.173L140.687,71.127L163.177,71.127L163.177,73.805L140.687,73.805L140.687,73.731C132.625,73.416 125.877,75.258 120.584,81.576L120.625,81.613L120.189,82.173Z" style="fill:white;"/>
        </g>
        <g id="Kappe" transform="matrix(5.56916,0,0,6.66081,30.6145,-173.887)">
            <path d="M77.444,116.195L77.444,105.199C77.444,99.993 81.949,95.767 87.497,95.767L138.769,95.767C144.319,95.767 148.826,99.995 148.826,105.202L148.826,116.236C137.8,115.62 125.597,115.277 112.762,115.277C100.216,115.277 88.273,115.604 77.444,116.195Z" style="fill:white;"/>
        </g>
    </g>
</svg>
